<svg xmlns="http://www.w3.org/2000/svg" xmlns:xlink="http://www.w3.org/1999/xlink" width="16" height="16" viewBox="0 0 16 16">
    <g fill="#CBD2D9" fill-rule="evenodd">
        <path d="M8.943 8l2.862-2.862c.26-.26.26-.682 0-.943-.26-.26-.682-.26-.943 0L8 7.057 5.138 4.195c-.26-.26-.682-.26-.943 0-.26.261-.26.682 0 .943L7.057 8l-2.862 2.862c-.26.26-.26.682 0 .943.13.13.301.195.472.195.17 0 .341-.065.471-.195L8 8.943l2.862 2.862c.13.13.3.195.471.195.171 0 .342-.065.472-.195.26-.261.26-.682 0-.943L8.943 8z"/>
    </g>
</svg>
