<?xml version="1.0" encoding="UTF-8"?>
<svg width="330px" height="48px" viewBox="0 0 330 48" version="1.1" xmlns="http://www.w3.org/2000/svg" xmlns:xlink="http://www.w3.org/1999/xlink">
    <!-- Generator: Sketch 63.1 (92452) - https://sketch.com -->
    <title>logo</title>
    <desc>Created with Sketch.</desc>
    <defs>
        <rect id="path-1" x="0" y="0" width="330" height="48"></rect>
    </defs>
    <g id="logo" stroke="none" stroke-width="1" fill="none" fill-rule="evenodd">
        <g>
            <mask id="mask-2" fill="white">
                <use xlink:href="#path-1"></use>
            </mask>
            <g id="Mask"></g>
            <path d="M71.235,36.18 C72.215,36.18 73.0025,35.8941667 73.5975,35.3225 C74.1925,34.7508333 74.49,33.9866667 74.49,33.03 L74.49,33.03 L74.49,16.545 L79.425,16.545 C80.4516667,16.545 81.2158333,16.3291667 81.7175,15.8975 C82.2191667,15.4658333 82.47,14.8066667 82.47,13.92 C82.47,13.0333333 82.2191667,12.38 81.7175,11.96 C81.2158333,11.54 80.4516667,11.33 79.425,11.33 L79.425,11.33 L63.045,11.33 C62.0183333,11.33 61.2541667,11.54 60.7525,11.96 C60.2508333,12.38 60,13.0333333 60,13.92 C60,14.8066667 60.2508333,15.4658333 60.7525,15.8975 C61.2541667,16.3291667 62.0183333,16.545 63.045,16.545 L63.045,16.545 L67.98,16.545 L67.98,33.03 C67.98,33.9866667 68.2775,34.7508333 68.8725,35.3225 C69.4675,35.8941667 70.255,36.18 71.235,36.18 Z M89.96,36.285 C91.8733333,36.285 93.5416667,35.9175 94.965,35.1825 C96.3883333,34.4475 97.4908333,33.4033333 98.2725,32.05 C99.0541667,30.6966667 99.445,29.11 99.445,27.29 C99.445,25.47 99.0541667,23.8891667 98.2725,22.5475 C97.4908333,21.2058333 96.3883333,20.1733333 94.965,19.45 C93.5416667,18.7266667 91.8733333,18.365 89.96,18.365 C88.0466667,18.365 86.3783333,18.7266667 84.955,19.45 C83.5316667,20.1733333 82.4291667,21.2058333 81.6475,22.5475 C80.8658333,23.8891667 80.475,25.47 80.475,27.29 C80.475,29.11 80.8658333,30.6966667 81.6475,32.05 C82.4291667,33.4033333 83.5375,34.4475 84.9725,35.1825 C86.4075,35.9175 88.07,36.285 89.96,36.285 Z M89.96,31.63 C87.7433333,31.63 86.635,30.1833333 86.635,27.29 C86.635,24.3966667 87.7433333,22.95 89.96,22.95 C92.1766667,22.95 93.285,24.3966667 93.285,27.29 C93.285,30.1833333 92.1766667,31.63 89.96,31.63 Z M117.575,36.18 C118.345,36.18 119.004167,35.8766667 119.5525,35.27 C120.100833,34.6633333 120.375,33.975 120.375,33.205 C120.375,32.435 120.071667,31.7583333 119.465,31.175 L119.465,31.175 L115.125,27.01 L118.94,23.23 C119.546667,22.6233333 119.85,21.9583333 119.85,21.235 C119.85,20.5116667 119.564167,19.8641667 118.9925,19.2925 C118.420833,18.7208333 117.761667,18.435 117.015,18.435 C116.245,18.435 115.568333,18.7383333 114.985,19.345 L114.985,19.345 L108.51,25.925 L108.51,14.06 C108.51,13.1033333 108.2125,12.38 107.6175,11.89 C107.0225,11.4 106.281667,11.155 105.395,11.155 C104.508333,11.155 103.7675,11.4 103.1725,11.89 C102.5775,12.38 102.28,13.1033333 102.28,14.06 L102.28,14.06 L102.28,33.275 C102.28,34.2316667 102.5775,34.955 103.1725,35.445 C103.7675,35.935 104.508333,36.18 105.395,36.18 C106.281667,36.18 107.0225,35.935 107.6175,35.445 C108.2125,34.955 108.51,34.2316667 108.51,33.275 L108.51,33.275 L108.51,28.55 L115.615,35.305 C116.268333,35.8883333 116.921667,36.18 117.575,36.18 Z M131.085,36.285 C131.995,36.285 132.9925,36.1508333 134.0775,35.8825 C135.1625,35.6141667 136.101667,35.2816667 136.895,34.885 C137.805,34.395 138.26,33.6833333 138.26,32.75 C138.26,32.0733333 138.090833,31.525 137.7525,31.105 C137.414167,30.685 136.976667,30.475 136.44,30.475 C136.16,30.475 135.850833,30.5275 135.5125,30.6325 C135.174167,30.7375 134.83,30.86 134.48,31 C133.873333,31.2333333 133.325,31.4141667 132.835,31.5425 C132.345,31.6708333 131.808333,31.735 131.225,31.735 C130.128333,31.735 129.3,31.49 128.74,31 C128.18,30.51 127.818333,29.705 127.655,28.585 L127.655,28.585 L136.895,28.585 C137.361667,28.585 137.7175,28.4391667 137.9625,28.1475 C138.2075,27.8558333 138.33,27.4416667 138.33,26.905 C138.33,25.1783333 137.9975,23.6733333 137.3325,22.39 C136.6675,21.1066667 135.728333,20.115 134.515,19.415 C133.301667,18.715 131.89,18.365 130.28,18.365 C128.623333,18.365 127.135833,18.7441667 125.8175,19.5025 C124.499167,20.2608333 123.4725,21.3225 122.7375,22.6875 C122.0025,24.0525 121.635,25.5983333 121.635,27.325 C121.635,29.145 122.02,30.7316667 122.79,32.085 C123.56,33.4383333 124.656667,34.4766667 126.08,35.2 C127.503333,35.9233333 129.171667,36.285 131.085,36.285 Z M133.115,25.645 L127.62,25.645 C127.713333,24.6416667 128.005,23.8775 128.495,23.3525 C128.985,22.8275 129.638333,22.565 130.455,22.565 C132.088333,22.565 132.975,23.5916667 133.115,25.645 L133.115,25.645 Z M155.725,36.215 C156.681667,36.215 157.44,35.9583333 158,35.445 C158.56,34.9316667 158.84,34.2316667 158.84,33.345 L158.84,33.345 L158.84,25.785 C158.84,23.2883333 158.338333,21.4275 157.335,20.2025 C156.331667,18.9775 154.803333,18.365 152.75,18.365 C151.583333,18.365 150.521667,18.5983333 149.565,19.065 C148.608333,19.5316667 147.826667,20.2083333 147.22,21.095 C147.22,20.3016667 146.9575,19.66 146.4325,19.17 C145.9075,18.68 145.201667,18.435 144.315,18.435 C143.381667,18.435 142.623333,18.6975 142.04,19.2225 C141.456667,19.7475 141.165,20.4183333 141.165,21.235 L141.165,21.235 L141.165,33.345 C141.165,34.2316667 141.445,34.9316667 142.005,35.445 C142.565,35.9583333 143.323333,36.215 144.28,36.215 C145.236667,36.215 145.995,35.9583333 146.555,35.445 C147.115,34.9316667 147.395,34.2316667 147.395,33.345 L147.395,33.345 L147.395,26.415 C147.395,25.4116667 147.669167,24.6125 148.2175,24.0175 C148.765833,23.4225 149.506667,23.125 150.44,23.125 C151.163333,23.125 151.705833,23.3583333 152.0675,23.825 C152.429167,24.2916667 152.61,25.0383333 152.61,26.065 L152.61,26.065 L152.61,33.345 C152.61,34.2316667 152.89,34.9316667 153.45,35.445 C154.01,35.9583333 154.768333,36.215 155.725,36.215 Z M165.455,15.985 C166.505,15.985 167.339167,15.7108333 167.9575,15.1625 C168.575833,14.6141667 168.885,13.885 168.885,12.975 C168.885,12.065 168.57,11.3416667 167.94,10.805 C167.31,10.2683333 166.481667,10 165.455,10 C164.405,10 163.570833,10.2683333 162.9525,10.805 C162.334167,11.3416667 162.025,12.065 162.025,12.975 C162.025,13.885 162.334167,14.6141667 162.9525,15.1625 C163.570833,15.7108333 164.405,15.985 165.455,15.985 Z M165.455,36.215 C166.341667,36.215 167.0825,35.9758333 167.6775,35.4975 C168.2725,35.0191667 168.57,34.3016667 168.57,33.345 L168.57,33.345 L168.57,21.305 C168.57,20.3483333 168.2725,19.6308333 167.6775,19.1525 C167.0825,18.6741667 166.341667,18.435 165.455,18.435 C164.568333,18.435 163.8275,18.6741667 163.2325,19.1525 C162.6375,19.6308333 162.34,20.3483333 162.34,21.305 L162.34,21.305 L162.34,33.345 C162.34,34.3016667 162.6375,35.0191667 163.2325,35.4975 C163.8275,35.9758333 164.568333,36.215 165.455,36.215 Z M185.23,36.005 C187.096667,36.005 188.03,35.235 188.03,33.695 C188.03,32.1783333 187.096667,31.42 185.23,31.42 L185.23,31.42 L179.14,31.42 L186.525,23.51 C187.108333,22.8566667 187.4,22.1566667 187.4,21.41 C187.4,20.6866667 187.143333,20.0683333 186.63,19.555 C186.116667,19.0416667 185.451667,18.785 184.635,18.785 L184.635,18.785 L174.03,18.785 C172.163333,18.785 171.23,19.5433333 171.23,21.06 C171.23,22.6 172.163333,23.37 174.03,23.37 L174.03,23.37 L179.665,23.37 L172.315,31.245 C171.731667,31.8983333 171.44,32.61 171.44,33.38 C171.44,34.1033333 171.696667,34.7216667 172.21,35.235 C172.723333,35.7483333 173.388333,36.005 174.205,36.005 L174.205,36.005 L185.23,36.005 Z M193.455,15.985 C194.505,15.985 195.339167,15.7108333 195.9575,15.1625 C196.575833,14.6141667 196.885,13.885 196.885,12.975 C196.885,12.065 196.57,11.3416667 195.94,10.805 C195.31,10.2683333 194.481667,10 193.455,10 C192.405,10 191.570833,10.2683333 190.9525,10.805 C190.334167,11.3416667 190.025,12.065 190.025,12.975 C190.025,13.885 190.334167,14.6141667 190.9525,15.1625 C191.570833,15.7108333 192.405,15.985 193.455,15.985 Z M193.455,36.215 C194.341667,36.215 195.0825,35.9758333 195.6775,35.4975 C196.2725,35.0191667 196.57,34.3016667 196.57,33.345 L196.57,33.345 L196.57,21.305 C196.57,20.3483333 196.2725,19.6308333 195.6775,19.1525 C195.0825,18.6741667 194.341667,18.435 193.455,18.435 C192.568333,18.435 191.8275,18.6741667 191.2325,19.1525 C190.6375,19.6308333 190.34,20.3483333 190.34,21.305 L190.34,21.305 L190.34,33.345 C190.34,34.3016667 190.6375,35.0191667 191.2325,35.4975 C191.8275,35.9758333 192.568333,36.215 193.455,36.215 Z M214.735,36.215 C215.691667,36.215 216.45,35.9583333 217.01,35.445 C217.57,34.9316667 217.85,34.2316667 217.85,33.345 L217.85,33.345 L217.85,25.785 C217.85,23.2883333 217.348333,21.4275 216.345,20.2025 C215.341667,18.9775 213.813333,18.365 211.76,18.365 C210.593333,18.365 209.531667,18.5983333 208.575,19.065 C207.618333,19.5316667 206.836667,20.2083333 206.23,21.095 C206.23,20.3016667 205.9675,19.66 205.4425,19.17 C204.9175,18.68 204.211667,18.435 203.325,18.435 C202.391667,18.435 201.633333,18.6975 201.05,19.2225 C200.466667,19.7475 200.175,20.4183333 200.175,21.235 L200.175,21.235 L200.175,33.345 C200.175,34.2316667 200.455,34.9316667 201.015,35.445 C201.575,35.9583333 202.333333,36.215 203.29,36.215 C204.246667,36.215 205.005,35.9583333 205.565,35.445 C206.125,34.9316667 206.405,34.2316667 206.405,33.345 L206.405,33.345 L206.405,26.415 C206.405,25.4116667 206.679167,24.6125 207.2275,24.0175 C207.775833,23.4225 208.516667,23.125 209.45,23.125 C210.173333,23.125 210.715833,23.3583333 211.0775,23.825 C211.439167,24.2916667 211.62,25.0383333 211.62,26.065 L211.62,26.065 L211.62,33.345 C211.62,34.2316667 211.9,34.9316667 212.46,35.445 C213.02,35.9583333 213.778333,36.215 214.735,36.215 Z M229.61,42.585 C232.923333,42.585 235.4375,41.85 237.1525,40.38 C238.8675,38.91 239.725,36.7516667 239.725,33.905 L239.725,33.905 L239.725,21.305 C239.725,20.4416667 239.445,19.7475 238.885,19.2225 C238.325,18.6975 237.578333,18.435 236.645,18.435 C235.758333,18.435 235.040833,18.6625 234.4925,19.1175 C233.944167,19.5725 233.646667,20.1966667 233.6,20.99 C233.086667,20.1733333 232.351667,19.5316667 231.395,19.065 C230.438333,18.5983333 229.388333,18.365 228.245,18.365 C226.751667,18.365 225.421667,18.7208333 224.255,19.4325 C223.088333,20.1441667 222.178333,21.1533333 221.525,22.46 C220.871667,23.7666667 220.545,25.2716667 220.545,26.975 C220.545,28.6783333 220.871667,30.1775 221.525,31.4725 C222.178333,32.7675 223.088333,33.765 224.255,34.465 C225.421667,35.165 226.751667,35.515 228.245,35.515 C229.365,35.515 230.403333,35.2875 231.36,34.8325 C232.316667,34.3775 233.051667,33.765 233.565,32.995 L233.565,32.995 L233.565,34.325 C233.565,35.6083333 233.2325,36.5475 232.5675,37.1425 C231.9025,37.7375 230.858333,38.035 229.435,38.035 C228.851667,38.035 228.28,37.9708333 227.72,37.8425 C227.16,37.7141667 226.518333,37.5333333 225.795,37.3 C224.698333,36.95 223.94,36.775 223.52,36.775 C222.983333,36.775 222.545833,36.985 222.2075,37.405 C221.869167,37.825 221.7,38.3733333 221.7,39.05 C221.7,39.5166667 221.8225,39.9366667 222.0675,40.31 C222.3125,40.6833333 222.645,40.9866667 223.065,41.22 C223.858333,41.6633333 224.826667,42.0016667 225.97,42.235 C227.113333,42.4683333 228.326667,42.585 229.61,42.585 Z M230.135,30.86 C229.085,30.86 228.250833,30.5158333 227.6325,29.8275 C227.014167,29.1391667 226.705,28.1883333 226.705,26.975 C226.705,25.715 227.008333,24.7408333 227.615,24.0525 C228.221667,23.3641667 229.061667,23.02 230.135,23.02 C231.231667,23.02 232.083333,23.37 232.69,24.07 C233.296667,24.77 233.6,25.7383333 233.6,26.975 C233.6,28.2116667 233.296667,29.1683333 232.69,29.845 C232.083333,30.5216667 231.231667,30.86 230.135,30.86 Z M265.485,36.32 C268.448333,36.32 271.05,35.5383333 273.29,33.975 C273.686667,33.695 273.9725,33.3858333 274.1475,33.0475 C274.3225,32.7091667 274.41,32.295 274.41,31.805 C274.41,31.0816667 274.205833,30.4691667 273.7975,29.9675 C273.389167,29.4658333 272.893333,29.215 272.31,29.215 C271.983333,29.215 271.703333,29.2616667 271.47,29.355 C271.236667,29.4483333 270.875,29.6233333 270.385,29.88 C269.358333,30.3466667 268.518333,30.6908333 267.865,30.9125 C267.211667,31.1341667 266.535,31.245 265.835,31.245 C263.758333,31.245 262.2125,30.6208333 261.1975,29.3725 C260.1825,28.1241667 259.675,26.2166667 259.675,23.65 C259.675,21.1066667 260.1825,19.2108333 261.1975,17.9625 C262.2125,16.7141667 263.758333,16.09 265.835,16.09 C266.605,16.09 267.351667,16.195 268.075,16.405 C268.798333,16.615 269.568333,16.965 270.385,17.455 C270.758333,17.6883333 271.085,17.8575 271.365,17.9625 C271.645,18.0675 271.96,18.12 272.31,18.12 C272.893333,18.12 273.389167,17.8691667 273.7975,17.3675 C274.205833,16.8658333 274.41,16.2533333 274.41,15.53 C274.41,15.0166667 274.3225,14.5966667 274.1475,14.27 C273.9725,13.9433333 273.686667,13.64 273.29,13.36 C271.05,11.7966667 268.448333,11.015 265.485,11.015 C263.011667,11.015 260.8475,11.5283333 258.9925,12.555 C257.1375,13.5816667 255.7025,15.0516667 254.6875,16.965 C253.6725,18.8783333 253.165,21.1066667 253.165,23.65 C253.165,26.2166667 253.6725,28.4566667 254.6875,30.37 C255.7025,32.2833333 257.1375,33.7533333 258.9925,34.78 C260.8475,35.8066667 263.011667,36.32 265.485,36.32 Z M287.57,36.005 C290.323333,36.005 292.685833,35.515 294.6575,34.535 C296.629167,33.555 298.134167,32.1375 299.1725,30.2825 C300.210833,28.4275 300.73,26.2166667 300.73,23.65 C300.73,21.1066667 300.205,18.9133333 299.155,17.07 C298.105,15.2266667 296.594167,13.8091667 294.6225,12.8175 C292.650833,11.8258333 290.3,11.33 287.57,11.33 L287.57,11.33 L280.5,11.33 C279.543333,11.33 278.808333,11.5866667 278.295,12.1 C277.781667,12.6133333 277.525,13.3483333 277.525,14.305 L277.525,14.305 L277.525,33.03 C277.525,33.9866667 277.781667,34.7216667 278.295,35.235 C278.808333,35.7483333 279.543333,36.005 280.5,36.005 L280.5,36.005 L287.57,36.005 Z M287.115,30.825 L283.965,30.825 L283.965,16.51 L287.115,16.51 C289.518333,16.51 291.320833,17.0933333 292.5225,18.26 C293.724167,19.4266667 294.325,21.2233333 294.325,23.65 C294.325,26.0766667 293.724167,27.8791667 292.5225,29.0575 C291.320833,30.2358333 289.518333,30.825 287.115,30.825 L287.115,30.825 Z M307.765,36.215 C308.768333,36.215 309.561667,35.9291667 310.145,35.3575 C310.728333,34.7858333 311.02,34.01 311.02,33.03 L311.02,33.03 L311.02,27.08 L316.515,27.08 C319.221667,27.08 321.339167,26.38 322.8675,24.98 C324.395833,23.58 325.16,21.655 325.16,19.205 C325.16,16.7316667 324.401667,14.8008333 322.885,13.4125 C321.368333,12.0241667 319.245,11.33 316.515,11.33 L316.515,11.33 L307.555,11.33 C306.598333,11.33 305.863333,11.5866667 305.35,12.1 C304.836667,12.6133333 304.58,13.3483333 304.58,14.305 L304.58,14.305 L304.58,33.03 C304.58,34.01 304.865833,34.7858333 305.4375,35.3575 C306.009167,35.9291667 306.785,36.215 307.765,36.215 Z M315.64,22.25 L311.02,22.25 L311.02,16.195 L315.64,16.195 C317.973333,16.195 319.14,17.21 319.14,19.24 C319.14,20.2666667 318.854167,21.025 318.2825,21.515 C317.710833,22.005 316.83,22.25 315.64,22.25 L315.64,22.25 Z" id="Shape" fill="#FFFFFF" fill-rule="nonzero" mask="url(#mask-2)"></path>
            <path d="M18.8888889,5 C21.7116776,5 24,7.30285498 24,10.1435706 C24,12.9842861 21.7116776,15.2871411 18.8888889,15.2871411 C18.8144708,15.2871411 18.7404243,15.2855406 18.6667813,15.2823718 L18.6666667,15.2871411 C14.0029288,15.2871411 10.2222222,19.091858 10.2222222,23.7852142 C10.2222222,27.4793761 12.5644967,30.6229962 15.8360302,31.7940852 C13.5916387,32.667161 12,34.8599554 12,37.4268579 C12,39.2543405 12.8067375,40.8922027 14.0813696,41.9994498 C5.98902832,39.9427163 0,32.5678133 0,23.7852142 C0,13.5231963 8.17665719,5.18306745 18.3311934,5.00297273 L18.6666667,5 L18.8888889,5 L18.8888889,5 Z" id="Shape" fill="#FFE4BF" mask="url(#mask-2)"></path>
            <path d="M38,23.8143613 C38,34.0766113 29.8233428,42.4169287 19.6688066,42.5970275 L19.3333333,42.6000003 C19.2595757,42.5983997 19.1855292,42.6000003 19.1111111,42.6000003 C16.2883224,42.6000003 14,40.2970932 14,37.4563134 C14,34.6155336 16.2883224,32.3126266 19.1111111,32.3126266 C19.1855292,32.3126266 19.2595757,32.3142271 19.3332187,32.317396 L19.3333333,32.3126266 C23.9970712,32.3126266 27.7777778,28.5078236 27.7777778,23.8143613 C27.7777778,20.1201159 25.4355033,16.9764248 22.1639698,15.8053093 C24.4083613,14.9322137 26,12.7393697 26,10.1724092 C26,8.345359 25.1936806,6.70783508 23.9196215,5.600575 C32.0114662,7.6571029 38,15.0319263 38,23.8143613 Z" id="Shape" fill="#CBFFF2" mask="url(#mask-2)"></path>
        </g>
    </g>
</svg>