<?xml version="1.0" encoding="UTF-8"?>
<svg width="40px" height="40px" viewBox="0 0 40 40" version="1.1" xmlns="http://www.w3.org/2000/svg" xmlns:xlink="http://www.w3.org/1999/xlink">
    <!-- Generator: Sketch 63.1 (92452) - https://sketch.com -->
    <title>icon-rebalance</title>
    <desc>Created with Sketch.</desc>
    <g id="icon-rebalance" stroke="none" stroke-width="1" fill="none" fill-rule="evenodd">
        <g>
            <circle id="Oval" fill-opacity="0.195940778" fill="#43BFBF" cx="20" cy="20" r="20"></circle>
            <path d="M21.9741572,15.0769231 L20,15.0769231 C16.4854607,15.0769231 13.6363636,17.8493139 13.6363636,21.2692308 C13.6363636,24.6891477 16.4854607,27.4615385 20,27.4615385 C23.5145393,27.4615385 26.3636364,24.6891477 26.3636364,21.2692308 C26.3636364,20.292112 27.1776641,19.5 28.1818182,19.5 C29.1859718,19.5 30,20.292112 30,21.2692308 C30,26.643386 25.5228475,31 20,31 C14.4771525,31 10,26.643386 10,21.2692308 C10,15.8950755 14.4771525,11.5384615 20,11.5384615 L21.9741572,11.5384615 L21.441624,11.0202662 C20.7315799,10.3293383 20.7315799,9.20912327 21.441624,8.51819531 C22.1516682,7.82726823 23.3028773,7.82726823 24.0129215,8.51819531 L27.6492851,12.0566568 C28.3593292,12.7475848 28.3593292,13.8677998 27.6492851,14.5587278 L24.0129215,18.0971893 C23.3028773,18.7881164 22.1516682,18.7881164 21.441624,18.0971893 C20.7315799,17.4062613 20.7315799,16.2860463 21.441624,15.5951184 L21.9741572,15.0769231 Z" id="Path" fill="#268080" fill-rule="nonzero"></path>
        </g>
    </g>
</svg>